<svg xmlns="http://www.w3.org/2000/svg" xmlns:xlink="http://www.w3.org/1999/xlink" width="500" zoomAndPan="magnify" viewBox="0 0 375 374.999991" height="500" preserveAspectRatio="xMidYMid meet" version="1.0"><defs><clipPath id="83daa849dd"><path d="M 37 0.75 L 335 0.75 L 335 310 L 37 310 Z M 37 0.75 " clip-rule="nonzero"/></clipPath></defs><path fill="#114929" d="M 337.023438 130.53125 C 337.023438 210.792969 337.023438 291.054688 337.023438 373.75 C 314.578125 373.75 292.132812 373.75 269.007812 373.75 C 268.675781 373.390625 268.34375 373.03125 268 372.660156 C 267.796875 372.441406 267.589844 372.222656 267.382812 372.003906 C 267.277344 371.886719 267.171875 371.773438 267.0625 371.660156 C 267.011719 371.605469 266.957031 371.546875 266.902344 371.492188 C 266.292969 370.835938 265.679688 370.183594 265.074219 369.527344 C 264.597656 369.003906 264.113281 368.488281 263.628906 367.972656 C 263.179688 367.496094 262.730469 367.015625 262.285156 366.535156 C 262.136719 366.375 261.988281 366.21875 261.839844 366.058594 C 261.378906 365.566406 260.921875 365.078125 260.46875 364.582031 C 259.988281 364.0625 259.503906 363.546875 259.023438 363.03125 C 258.355469 362.320312 257.691406 361.613281 257.035156 360.894531 C 256.554688 360.375 256.070312 359.859375 255.585938 359.34375 C 255.136719 358.867188 254.691406 358.386719 254.242188 357.90625 C 254.09375 357.746094 253.945312 357.585938 253.796875 357.429688 C 253.339844 356.9375 252.882812 356.445312 252.425781 355.953125 C 251.949219 355.433594 251.464844 354.917969 250.980469 354.402344 C 250.53125 353.921875 250.082031 353.441406 249.636719 352.960938 C 249.488281 352.804688 249.339844 352.644531 249.191406 352.484375 C 248.730469 351.996094 248.273438 351.503906 247.820312 351.007812 C 247.339844 350.488281 246.855469 349.972656 246.371094 349.457031 C 245.921875 348.980469 245.476562 348.5 245.027344 348.019531 C 244.878906 347.859375 244.730469 347.703125 244.582031 347.542969 C 244.125 347.050781 243.667969 346.558594 243.210938 346.066406 C 242.734375 345.546875 242.25 345.03125 241.765625 344.515625 C 241.101562 343.804688 240.4375 343.09375 239.777344 342.378906 C 239.296875 341.859375 238.816406 341.34375 238.332031 340.828125 C 237.882812 340.351562 237.433594 339.871094 236.988281 339.390625 C 236.839844 339.230469 236.691406 339.070312 236.542969 338.914062 C 236.082031 338.421875 235.625 337.929688 235.171875 337.4375 C 234.691406 336.917969 234.207031 336.402344 233.722656 335.886719 C 233.273438 335.40625 232.828125 334.925781 232.378906 334.445312 C 232.230469 334.289062 232.082031 334.128906 231.933594 333.96875 C 231.476562 333.480469 231.019531 332.988281 230.5625 332.492188 C 230.085938 331.972656 229.601562 331.457031 229.117188 330.941406 C 228.667969 330.464844 228.21875 329.984375 227.773438 329.503906 C 227.625 329.34375 227.476562 329.183594 227.328125 329.027344 C 226.867188 328.535156 226.410156 328.042969 225.957031 327.550781 C 225.476562 327.03125 224.992188 326.515625 224.507812 326 C 224.058594 325.519531 223.613281 325.039062 223.164062 324.558594 C 223.015625 324.402344 222.867188 324.242188 222.71875 324.082031 C 222.195312 323.519531 221.667969 322.957031 221.144531 322.386719 C 220.953125 322.179688 220.953125 322.179688 220.757812 321.972656 C 220.730469 339.058594 220.703125 356.148438 220.675781 373.75 C 203.71875 373.820312 203.71875 373.820312 197.207031 373.832031 C 195.503906 373.835938 193.800781 373.839844 192.097656 373.84375 C 191.894531 373.84375 191.6875 373.84375 191.480469 373.84375 C 188.207031 373.851562 184.929688 373.863281 181.652344 373.878906 C 178.285156 373.894531 174.914062 373.90625 171.542969 373.910156 C 171.066406 373.910156 170.589844 373.910156 170.113281 373.910156 C 170.019531 373.910156 169.925781 373.910156 169.828125 373.910156 C 168.324219 373.914062 166.816406 373.921875 165.3125 373.929688 C 163.796875 373.941406 162.277344 373.945312 160.761719 373.941406 C 159.941406 373.941406 159.121094 373.941406 158.300781 373.949219 C 154.953125 373.988281 152.09375 373.996094 149.101562 372.285156 C 148.527344 371.960938 147.914062 371.714844 147.308594 371.460938 C 146.992188 371.332031 146.679688 371.195312 146.367188 371.058594 C 146.242188 371.003906 146.121094 370.949219 145.996094 370.898438 C 145.417969 370.648438 144.839844 370.398438 144.265625 370.148438 C 143.941406 370.007812 143.617188 369.871094 143.296875 369.730469 C 143.164062 369.671875 143.035156 369.617188 142.90625 369.5625 C 142.84375 369.535156 142.78125 369.507812 142.714844 369.476562 C 132.835938 365.207031 132.835938 365.207031 132.640625 365.121094 C 132.511719 365.066406 132.382812 365.011719 132.253906 364.953125 C 131.929688 364.816406 131.609375 364.675781 131.285156 364.535156 C 130.699219 364.28125 130.113281 364.027344 129.527344 363.773438 C 128.171875 363.1875 126.816406 362.601562 125.464844 362.015625 C 124.246094 361.488281 123.027344 360.960938 121.808594 360.433594 C 121.222656 360.179688 120.640625 359.929688 120.054688 359.675781 C 119.730469 359.535156 119.410156 359.394531 119.085938 359.257812 C 118.957031 359.199219 118.828125 359.144531 118.699219 359.089844 C 118.601562 359.046875 118.601562 359.046875 118.503906 359.003906 C 117.277344 358.476562 116.050781 357.945312 114.824219 357.414062 C 114.761719 357.386719 114.699219 357.359375 114.632812 357.328125 C 114.503906 357.273438 114.375 357.21875 114.242188 357.164062 C 113.921875 357.023438 113.597656 356.882812 113.277344 356.742188 C 112.6875 356.488281 112.101562 356.234375 111.511719 355.980469 C 111.246094 355.863281 110.976562 355.75 110.710938 355.632812 C 110.585938 355.578125 110.460938 355.527344 110.339844 355.472656 C 109.117188 354.941406 107.890625 354.417969 106.667969 353.894531 C 106.667969 360.449219 106.667969 367 106.667969 373.75 C 84.222656 373.75 61.777344 373.75 38.652344 373.75 C 38.609375 365.332031 38.570312 356.910156 38.53125 348.234375 C 38.511719 345.574219 38.496094 342.910156 38.476562 340.171875 C 38.46875 336.925781 38.46875 336.925781 38.464844 335.410156 C 38.464844 334.277344 38.457031 333.144531 38.445312 332.011719 C 38.433594 330.859375 38.429688 329.703125 38.433594 328.546875 C 38.433594 327.859375 38.429688 327.175781 38.417969 326.488281 C 38.410156 325.980469 38.410156 325.472656 38.417969 324.96875 C 38.417969 324.761719 38.417969 324.558594 38.410156 324.351562 C 38.367188 322.863281 38.367188 322.863281 38.839844 322.355469 C 39.308594 321.976562 39.816406 321.6875 40.351562 321.417969 C 40.636719 321.273438 40.898438 321.105469 41.164062 320.925781 C 41.324219 320.824219 41.480469 320.722656 41.640625 320.621094 C 42.480469 320.085938 43.320312 319.542969 44.15625 318.996094 C 45.035156 318.425781 45.917969 317.855469 46.800781 317.292969 C 47.65625 316.746094 48.503906 316.199219 49.351562 315.644531 C 50.230469 315.074219 51.113281 314.503906 51.996094 313.941406 C 52.847656 313.394531 53.695312 312.847656 54.542969 312.292969 C 55.421875 311.722656 56.304688 311.15625 57.1875 310.589844 C 58.042969 310.042969 58.890625 309.496094 59.738281 308.941406 C 60.617188 308.371094 61.5 307.804688 62.382812 307.238281 C 63.234375 306.695312 64.085938 306.144531 64.933594 305.589844 C 65.808594 305.019531 66.691406 304.453125 67.574219 303.886719 C 68.425781 303.34375 69.277344 302.792969 70.121094 302.242188 C 70.601562 301.929688 71.085938 301.617188 71.566406 301.304688 C 71.734375 301.199219 71.902344 301.089844 72.070312 300.980469 C 72.777344 300.523438 73.484375 300.066406 74.195312 299.613281 C 75.046875 299.070312 75.894531 298.519531 76.742188 297.96875 C 77.621094 297.394531 78.503906 296.828125 79.386719 296.261719 C 80.238281 295.71875 81.089844 295.167969 81.9375 294.617188 C 82.816406 294.042969 83.695312 293.476562 84.582031 292.910156 C 85.433594 292.367188 86.28125 291.816406 87.128906 291.265625 C 88.007812 290.691406 88.890625 290.125 89.773438 289.558594 C 90.625 289.015625 91.476562 288.464844 92.324219 287.914062 C 93.203125 287.339844 94.082031 286.773438 94.96875 286.210938 C 95.820312 285.664062 96.667969 285.117188 97.511719 284.5625 C 97.996094 284.25 98.476562 283.941406 98.957031 283.628906 C 99.125 283.519531 99.292969 283.410156 99.460938 283.300781 C 100.167969 282.84375 100.875 282.390625 101.585938 281.9375 C 102.371094 281.433594 103.152344 280.929688 103.933594 280.421875 C 104.191406 280.25 104.453125 280.082031 104.714844 279.910156 C 104.78125 279.871094 104.84375 279.832031 104.90625 279.789062 C 105.027344 279.710938 105.148438 279.632812 105.269531 279.554688 C 105.640625 279.316406 106 279.070312 106.351562 278.8125 C 106.550781 278.71875 106.628906 278.753906 106.835938 278.824219 C 106.996094 278.929688 106.996094 278.929688 107.160156 279.0625 C 107.253906 279.132812 107.253906 279.132812 107.347656 279.207031 C 107.445312 279.285156 107.445312 279.285156 107.542969 279.363281 C 107.679688 279.472656 107.816406 279.582031 107.953125 279.6875 C 108.019531 279.742188 108.085938 279.792969 108.15625 279.847656 C 108.40625 280.046875 108.660156 280.242188 108.914062 280.4375 C 109 280.503906 109.085938 280.570312 109.175781 280.640625 C 109.304688 280.738281 109.304688 280.738281 109.433594 280.835938 C 110.042969 281.304688 110.648438 281.773438 111.253906 282.246094 C 111.929688 282.773438 112.609375 283.292969 113.292969 283.8125 C 113.621094 284.066406 113.953125 284.320312 114.285156 284.574219 C 114.457031 284.707031 114.625 284.839844 114.796875 284.972656 C 115.320312 285.371094 115.84375 285.777344 116.363281 286.183594 C 117.039062 286.710938 117.71875 287.230469 118.402344 287.75 C 118.734375 288.003906 119.0625 288.257812 119.394531 288.511719 C 119.566406 288.644531 119.738281 288.777344 119.910156 288.910156 C 120.433594 289.3125 120.953125 289.714844 121.472656 290.121094 C 122.148438 290.648438 122.828125 291.167969 123.511719 291.6875 C 123.84375 291.941406 124.171875 292.195312 124.503906 292.449219 C 124.675781 292.582031 124.847656 292.714844 125.019531 292.847656 C 125.542969 293.25 126.0625 293.652344 126.582031 294.058594 C 127.257812 294.585938 127.9375 295.105469 128.621094 295.625 C 128.953125 295.878906 129.28125 296.132812 129.613281 296.386719 C 129.785156 296.519531 129.957031 296.652344 130.128906 296.785156 C 130.652344 297.1875 131.171875 297.589844 131.695312 297.996094 C 132.371094 298.523438 133.050781 299.042969 133.730469 299.5625 C 134.0625 299.816406 134.390625 300.070312 134.722656 300.324219 C 134.894531 300.457031 135.066406 300.589844 135.238281 300.722656 C 135.761719 301.125 136.28125 301.527344 136.804688 301.933594 C 137.480469 302.460938 138.160156 302.980469 138.839844 303.5 C 139.171875 303.753906 139.5 304.007812 139.832031 304.265625 C 140.003906 304.394531 140.175781 304.527344 140.347656 304.660156 C 140.871094 305.0625 141.390625 305.464844 141.914062 305.871094 C 142.589844 306.398438 143.269531 306.921875 143.953125 307.441406 C 144.613281 307.949219 145.273438 308.457031 145.933594 308.972656 C 146.609375 309.5 147.289062 310.019531 147.96875 310.539062 C 148.300781 310.792969 148.632812 311.046875 148.960938 311.300781 C 149.132812 311.433594 149.304688 311.566406 149.476562 311.699219 C 150.195312 312.25 150.910156 312.804688 151.621094 313.359375 C 151.820312 313.511719 152.019531 313.667969 152.21875 313.824219 C 152.316406 313.902344 152.316406 313.902344 152.421875 313.980469 C 152.46875 314.019531 152.519531 314.058594 152.570312 314.097656 C 152.570312 314.011719 152.570312 314.011719 152.570312 313.925781 C 152.566406 307.785156 152.558594 301.644531 152.5625 295.503906 C 152.5625 295.414062 152.5625 295.320312 152.5625 295.226562 C 152.5625 293.234375 152.5625 291.242188 152.5625 289.25 C 152.5625 288.269531 152.5625 287.292969 152.5625 286.316406 C 152.5625 286.21875 152.5625 286.121094 152.5625 286.023438 C 152.5625 282.867188 152.558594 279.714844 152.554688 276.5625 C 152.554688 273.324219 152.550781 270.082031 152.554688 266.84375 C 152.554688 266.386719 152.554688 265.929688 152.554688 265.472656 C 152.554688 265.382812 152.554688 265.292969 152.554688 265.199219 C 152.554688 263.75 152.554688 262.296875 152.550781 260.847656 C 152.546875 259.390625 152.546875 257.933594 152.550781 256.476562 C 152.554688 255.609375 152.550781 254.742188 152.546875 253.875 C 152.546875 253.296875 152.546875 252.71875 152.550781 252.140625 C 152.550781 251.8125 152.550781 251.480469 152.546875 251.152344 C 152.546875 250.851562 152.546875 250.554688 152.550781 250.253906 C 152.550781 250.09375 152.546875 249.933594 152.546875 249.777344 C 152.558594 249.101562 152.558594 249.101562 152.835938 248.808594 C 153.050781 248.660156 153.261719 248.535156 153.492188 248.414062 C 153.617188 248.335938 153.742188 248.253906 153.863281 248.171875 C 153.988281 248.097656 154.113281 248.019531 154.238281 247.941406 C 154.804688 247.585938 155.371094 247.222656 155.933594 246.855469 C 156.003906 246.8125 156.074219 246.765625 156.144531 246.71875 C 156.285156 246.628906 156.425781 246.539062 156.5625 246.445312 C 157.445312 245.871094 158.328125 245.304688 159.214844 244.738281 C 160.066406 244.191406 160.917969 243.640625 161.765625 243.089844 C 162.644531 242.515625 163.527344 241.949219 164.410156 241.386719 C 165.261719 240.839844 166.109375 240.289062 166.957031 239.738281 C 167.835938 239.167969 168.71875 238.597656 169.601562 238.035156 C 170.457031 237.488281 171.304688 236.941406 172.152344 236.386719 C 173.027344 235.816406 173.902344 235.253906 174.78125 234.691406 C 175.542969 234.207031 176.300781 233.714844 177.058594 233.21875 C 177.742188 232.773438 178.425781 232.332031 179.113281 231.894531 C 179.867188 231.414062 180.617188 230.925781 181.367188 230.4375 C 182.246094 229.867188 183.128906 229.300781 184.011719 228.734375 C 184.863281 228.1875 185.710938 227.640625 186.558594 227.085938 C 187.4375 226.515625 188.320312 225.949219 189.203125 225.382812 C 190.054688 224.839844 190.90625 224.289062 191.753906 223.734375 C 192.625 223.167969 193.503906 222.601562 194.382812 222.042969 C 195.144531 221.554688 195.902344 221.0625 196.660156 220.566406 C 197.34375 220.121094 198.027344 219.683594 198.714844 219.242188 C 199.46875 218.761719 200.21875 218.277344 200.96875 217.789062 C 201.847656 217.214844 202.726562 216.648438 203.613281 216.082031 C 204.464844 215.539062 205.3125 214.988281 206.160156 214.4375 C 207.039062 213.863281 207.921875 213.296875 208.804688 212.730469 C 209.65625 212.1875 210.507812 211.636719 211.355469 211.085938 C 212.234375 210.511719 213.113281 209.945312 214 209.378906 C 214.851562 208.835938 215.699219 208.289062 216.546875 207.734375 C 217.023438 207.421875 217.503906 207.113281 217.984375 206.804688 C 218.230469 206.644531 218.476562 206.484375 218.71875 206.328125 C 218.839844 206.246094 218.960938 206.167969 219.082031 206.089844 C 219.347656 205.921875 219.609375 205.75 219.867188 205.574219 C 219.949219 205.519531 220.03125 205.460938 220.113281 205.40625 C 220.183594 205.359375 220.25 205.308594 220.320312 205.261719 C 220.507812 205.179688 220.507812 205.179688 220.675781 205.21875 C 220.902344 205.394531 221.035156 205.597656 221.199219 205.835938 C 221.5625 206.363281 221.941406 206.871094 222.332031 207.378906 C 222.753906 207.925781 223.164062 208.476562 223.5625 209.035156 C 223.957031 209.585938 224.363281 210.125 224.773438 210.664062 C 225.449219 211.546875 226.109375 212.4375 226.765625 213.335938 C 227.386719 214.1875 228.019531 215.027344 228.660156 215.863281 C 228.996094 216.308594 229.328125 216.757812 229.648438 217.214844 C 229.964844 217.660156 230.292969 218.089844 230.625 218.523438 C 231.042969 219.070312 231.457031 219.617188 231.855469 220.179688 C 232.25 220.726562 232.65625 221.269531 233.066406 221.804688 C 233.742188 222.6875 234.402344 223.582031 235.058594 224.480469 C 235.679688 225.328125 236.3125 226.171875 236.953125 227.007812 C 237.289062 227.453125 237.621094 227.898438 237.941406 228.355469 C 238.257812 228.800781 238.585938 229.234375 238.917969 229.667969 C 239.335938 230.210938 239.75 230.761719 240.148438 231.320312 C 240.542969 231.875 240.949219 232.414062 241.363281 232.953125 C 241.777344 233.492188 242.183594 234.035156 242.578125 234.589844 C 242.972656 235.140625 243.375 235.679688 243.789062 236.21875 C 244.464844 237.097656 245.121094 237.992188 245.777344 238.890625 C 246.402344 239.738281 247.03125 240.582031 247.671875 241.417969 C 248.011719 241.863281 248.34375 242.308594 248.664062 242.769531 C 248.976562 243.210938 249.308594 243.644531 249.640625 244.078125 C 250.058594 244.621094 250.472656 245.171875 250.871094 245.730469 C 251.265625 246.28125 251.667969 246.824219 252.082031 247.359375 C 252.757812 248.242188 253.414062 249.136719 254.070312 250.03125 C 254.695312 250.882812 255.324219 251.726562 255.964844 252.5625 C 256.304688 253.003906 256.636719 253.453125 256.957031 253.910156 C 257.269531 254.355469 257.601562 254.789062 257.933594 255.21875 C 258.351562 255.765625 258.765625 256.316406 259.164062 256.875 C 259.558594 257.425781 259.960938 257.964844 260.375 258.503906 C 261.050781 259.386719 261.707031 260.277344 262.363281 261.175781 C 262.988281 262.027344 263.617188 262.867188 264.257812 263.703125 C 264.597656 264.148438 264.929688 264.597656 265.25 265.054688 C 265.5625 265.5 265.894531 265.929688 266.226562 266.363281 C 266.691406 266.972656 267.148438 267.582031 267.59375 268.207031 C 267.898438 268.632812 268.207031 269.050781 268.523438 269.46875 C 268.59375 269.558594 268.59375 269.558594 268.664062 269.65625 C 268.777344 269.808594 268.890625 269.960938 269.007812 270.113281 C 269.007812 270.027344 269.007812 269.945312 269.007812 269.859375 C 269.003906 267.003906 269 264.144531 268.996094 261.289062 C 268.996094 261.230469 268.996094 261.171875 268.996094 261.113281 C 268.984375 254.949219 268.980469 248.78125 268.976562 242.613281 C 268.976562 242.476562 268.976562 242.339844 268.976562 242.203125 C 268.976562 239.328125 268.976562 236.453125 268.976562 233.578125 C 268.972656 232.136719 268.972656 230.691406 268.972656 229.246094 C 268.972656 229.027344 268.972656 228.8125 268.972656 228.59375 C 268.972656 225.238281 268.96875 221.882812 268.964844 218.527344 C 268.964844 218.457031 268.964844 218.382812 268.964844 218.308594 C 268.964844 217.148438 268.960938 215.984375 268.960938 214.820312 C 268.953125 211.472656 268.949219 208.121094 268.949219 204.773438 C 268.949219 204.703125 268.949219 204.632812 268.949219 204.5625 C 268.949219 203.050781 268.949219 201.539062 268.949219 200.027344 C 268.949219 199.417969 268.949219 198.8125 268.949219 198.203125 C 268.949219 198.136719 268.949219 198.070312 268.949219 198 C 268.949219 195.855469 268.945312 193.710938 268.941406 191.5625 C 268.9375 189.402344 268.933594 187.242188 268.9375 185.078125 C 268.9375 184.78125 268.9375 184.480469 268.941406 184.183594 C 268.941406 184.125 268.941406 184.066406 268.941406 184.007812 C 268.941406 183.078125 268.9375 182.152344 268.933594 181.226562 C 268.929688 180.3125 268.929688 179.402344 268.933594 178.488281 C 268.9375 178.003906 268.9375 177.515625 268.929688 177.027344 C 268.925781 176.582031 268.925781 176.140625 268.933594 175.695312 C 268.933594 175.535156 268.933594 175.378906 268.929688 175.21875 C 268.90625 174.058594 268.90625 174.058594 269.214844 173.699219 C 269.515625 173.441406 269.847656 173.253906 270.203125 173.082031 C 270.382812 172.992188 270.542969 172.886719 270.707031 172.773438 C 270.808594 172.707031 270.90625 172.644531 271.007812 172.578125 C 271.0625 172.542969 271.121094 172.503906 271.179688 172.46875 C 271.808594 172.0625 272.441406 171.65625 273.074219 171.253906 C 273.835938 170.765625 274.59375 170.273438 275.351562 169.78125 C 276.226562 169.210938 277.101562 168.648438 277.980469 168.085938 C 278.742188 167.597656 279.5 167.105469 280.257812 166.613281 C 280.941406 166.164062 281.625 165.726562 282.3125 165.289062 C 283.066406 164.804688 283.816406 164.320312 284.566406 163.832031 C 285.445312 163.257812 286.328125 162.691406 287.210938 162.128906 C 288.0625 161.582031 288.910156 161.03125 289.757812 160.480469 C 290.636719 159.90625 291.519531 159.339844 292.402344 158.777344 C 293.257812 158.230469 294.105469 157.679688 294.953125 157.128906 C 295.832031 156.554688 296.714844 155.988281 297.597656 155.425781 C 298.449219 154.878906 299.296875 154.332031 300.144531 153.78125 C 300.625 153.464844 301.105469 153.15625 301.589844 152.84375 C 301.753906 152.734375 301.921875 152.625 302.089844 152.519531 C 302.796875 152.058594 303.503906 151.605469 304.214844 151.152344 C 305.066406 150.605469 305.917969 150.058594 306.765625 149.503906 C 307.640625 148.933594 308.523438 148.363281 309.40625 147.800781 C 310.261719 147.253906 311.109375 146.707031 311.957031 146.152344 C 312.835938 145.582031 313.71875 145.015625 314.601562 144.449219 C 315.453125 143.902344 316.304688 143.355469 317.152344 142.800781 C 318.023438 142.234375 318.902344 141.667969 319.78125 141.109375 C 320.542969 140.621094 321.300781 140.128906 322.058594 139.632812 C 322.738281 139.1875 323.425781 138.75 324.113281 138.308594 C 324.867188 137.828125 325.617188 137.339844 326.363281 136.855469 C 327.242188 136.28125 328.125 135.714844 329.007812 135.148438 C 329.863281 134.605469 330.710938 134.054688 331.558594 133.503906 C 332.707031 132.753906 333.859375 132.007812 335.019531 131.277344 C 335.183594 131.171875 335.34375 131.058594 335.503906 130.945312 C 335.582031 130.890625 335.660156 130.839844 335.738281 130.785156 C 335.804688 130.734375 335.871094 130.6875 335.9375 130.636719 C 336.1875 130.53125 336.1875 130.53125 337.023438 130.53125 Z M 337.023438 130.53125 " fill-opacity="1" fill-rule="nonzero"/><g clip-path="url(#83daa849dd)"><path fill="#0a5026" d="M 185.289062 0.746094 C 185.550781 0.859375 185.746094 1.007812 185.96875 1.1875 C 186.066406 1.261719 186.160156 1.339844 186.257812 1.414062 C 186.308594 1.457031 186.359375 1.496094 186.414062 1.539062 C 186.71875 1.78125 187.027344 2.019531 187.335938 2.257812 C 187.464844 2.359375 187.59375 2.460938 187.726562 2.5625 C 188.027344 2.796875 188.328125 3.03125 188.632812 3.265625 C 189.132812 3.648438 189.632812 4.035156 190.128906 4.421875 C 190.496094 4.707031 190.863281 4.992188 191.230469 5.277344 C 191.730469 5.660156 192.226562 6.046875 192.726562 6.433594 C 193.089844 6.71875 193.457031 7.003906 193.828125 7.285156 C 194.328125 7.671875 194.824219 8.058594 195.320312 8.445312 C 195.6875 8.730469 196.054688 9.015625 196.421875 9.296875 C 197.175781 9.875 197.925781 10.460938 198.671875 11.042969 C 199.375 11.589844 200.082031 12.136719 200.789062 12.679688 C 201.199219 13 201.613281 13.320312 202.023438 13.640625 C 202.390625 13.925781 202.757812 14.210938 203.125 14.492188 C 203.625 14.875 204.121094 15.261719 204.621094 15.652344 C 204.984375 15.9375 205.351562 16.21875 205.722656 16.503906 C 206.222656 16.886719 206.71875 17.273438 207.214844 17.660156 C 207.582031 17.945312 207.949219 18.230469 208.320312 18.511719 C 209.070312 19.089844 209.820312 19.675781 210.566406 20.257812 C 211.269531 20.804688 211.976562 21.351562 212.683594 21.894531 C 213.09375 22.214844 213.507812 22.535156 213.917969 22.855469 C 214.285156 23.140625 214.652344 23.425781 215.019531 23.707031 C 215.519531 24.09375 216.015625 24.480469 216.515625 24.867188 C 216.882812 25.152344 217.25 25.4375 217.617188 25.71875 C 218.117188 26.101562 218.613281 26.488281 219.113281 26.878906 C 219.476562 27.164062 219.84375 27.445312 220.214844 27.730469 C 220.964844 28.308594 221.714844 28.890625 222.460938 29.476562 C 223.164062 30.023438 223.871094 30.570312 224.578125 31.113281 C 224.988281 31.429688 225.402344 31.75 225.8125 32.070312 C 226.179688 32.355469 226.546875 32.640625 226.914062 32.925781 C 227.414062 33.308594 227.910156 33.695312 228.410156 34.082031 C 228.777344 34.367188 229.144531 34.652344 229.511719 34.933594 C 230.011719 35.320312 230.507812 35.707031 231.007812 36.09375 C 231.371094 36.378906 231.738281 36.664062 232.109375 36.945312 C 232.859375 37.523438 233.609375 38.109375 234.355469 38.691406 C 235.058594 39.238281 235.765625 39.785156 236.472656 40.328125 C 236.886719 40.644531 237.296875 40.96875 237.707031 41.289062 C 238.074219 41.574219 238.441406 41.855469 238.808594 42.140625 C 239.308594 42.523438 239.808594 42.910156 240.304688 43.296875 C 240.671875 43.582031 241.039062 43.867188 241.40625 44.152344 C 241.90625 44.535156 242.402344 44.921875 242.902344 45.308594 C 243.265625 45.59375 243.632812 45.878906 244.003906 46.160156 C 244.503906 46.546875 245 46.933594 245.496094 47.320312 C 245.863281 47.605469 246.230469 47.890625 246.597656 48.171875 C 247.351562 48.75 248.101562 49.335938 248.847656 49.917969 C 249.550781 50.464844 250.257812 51.011719 250.964844 51.554688 C 251.375 51.875 251.789062 52.195312 252.199219 52.515625 C 252.566406 52.800781 252.933594 53.085938 253.300781 53.367188 C 253.800781 53.75 254.296875 54.136719 254.796875 54.527344 C 255.160156 54.8125 255.527344 55.09375 255.898438 55.378906 C 256.398438 55.761719 256.894531 56.148438 257.390625 56.535156 C 257.757812 56.820312 258.125 57.105469 258.492188 57.386719 C 259.246094 57.964844 259.996094 58.550781 260.742188 59.132812 C 261.445312 59.683594 262.152344 60.226562 262.859375 60.769531 C 263.269531 61.089844 263.683594 61.410156 264.09375 61.730469 C 264.460938 62.015625 264.828125 62.300781 265.195312 62.582031 C 265.695312 62.96875 266.191406 63.355469 266.691406 63.742188 C 267.058594 64.027344 267.425781 64.3125 267.792969 64.59375 C 268.292969 64.976562 268.789062 65.363281 269.289062 65.753906 C 269.652344 66.039062 270.019531 66.320312 270.390625 66.605469 C 271.140625 67.183594 271.890625 67.765625 272.636719 68.351562 C 273.339844 68.898438 274.046875 69.445312 274.753906 69.988281 C 275.164062 70.304688 275.578125 70.625 275.988281 70.945312 C 276.355469 71.230469 276.722656 71.515625 277.089844 71.800781 C 277.589844 72.183594 278.085938 72.570312 278.585938 72.957031 C 278.953125 73.242188 279.320312 73.527344 279.6875 73.808594 C 280.1875 74.195312 280.683594 74.582031 281.183594 74.96875 C 281.546875 75.253906 281.914062 75.539062 282.285156 75.820312 C 283.035156 76.398438 283.785156 76.984375 284.53125 77.566406 C 285.234375 78.113281 285.941406 78.660156 286.648438 79.203125 C 287.0625 79.519531 287.472656 79.84375 287.882812 80.164062 C 288.25 80.449219 288.617188 80.734375 288.984375 81.015625 C 289.484375 81.398438 289.984375 81.785156 290.480469 82.171875 C 290.847656 82.460938 291.214844 82.742188 291.582031 83.027344 C 292.082031 83.410156 292.578125 83.796875 293.078125 84.183594 C 293.441406 84.46875 293.808594 84.753906 294.179688 85.035156 C 294.929688 85.613281 295.679688 86.199219 296.425781 86.78125 C 297.132812 87.328125 297.835938 87.875 298.542969 88.417969 C 298.957031 88.738281 299.367188 89.058594 299.777344 89.378906 C 300.144531 89.664062 300.511719 89.949219 300.878906 90.230469 C 301.378906 90.617188 301.878906 91.003906 302.375 91.390625 C 302.742188 91.675781 303.109375 91.960938 303.476562 92.242188 C 303.976562 92.625 304.472656 93.011719 304.972656 93.402344 C 305.335938 93.6875 305.703125 93.96875 306.074219 94.253906 C 306.824219 94.832031 307.574219 95.414062 308.324219 96 C 309.027344 96.546875 309.730469 97.09375 310.4375 97.636719 C 310.851562 97.953125 311.261719 98.273438 311.671875 98.59375 C 312.039062 98.878906 312.40625 99.164062 312.773438 99.449219 C 313.273438 99.832031 313.773438 100.21875 314.269531 100.605469 C 314.636719 100.890625 315.003906 101.175781 315.371094 101.457031 C 315.871094 101.84375 316.367188 102.230469 316.867188 102.617188 C 317.234375 102.902344 317.601562 103.1875 317.96875 103.46875 C 318.71875 104.046875 319.46875 104.632812 320.21875 105.214844 C 320.921875 105.761719 321.625 106.308594 322.332031 106.851562 C 322.746094 107.167969 323.15625 107.492188 323.566406 107.8125 C 323.933594 108.097656 324.300781 108.378906 324.667969 108.664062 C 325.167969 109.046875 325.667969 109.433594 326.164062 109.820312 C 326.53125 110.105469 326.898438 110.390625 327.265625 110.675781 C 327.765625 111.058594 328.261719 111.445312 328.761719 111.832031 C 329.128906 112.117188 329.496094 112.402344 329.863281 112.683594 C 330.363281 113.070312 330.859375 113.457031 331.359375 113.84375 C 331.722656 114.128906 332.089844 114.414062 332.460938 114.695312 C 332.542969 114.761719 332.628906 114.824219 332.714844 114.894531 C 332.941406 115.070312 333.175781 115.242188 333.40625 115.414062 C 333.546875 115.519531 333.6875 115.625 333.824219 115.734375 C 333.894531 115.78125 333.960938 115.832031 334.03125 115.882812 C 334.125 115.957031 334.125 115.957031 334.21875 116.027344 C 334.277344 116.070312 334.332031 116.113281 334.390625 116.15625 C 334.511719 116.289062 334.511719 116.289062 334.511719 116.621094 C 334.355469 116.761719 334.355469 116.761719 334.128906 116.898438 C 334.046875 116.949219 333.964844 117.003906 333.878906 117.054688 C 333.785156 117.113281 333.695312 117.167969 333.601562 117.226562 C 333.503906 117.285156 333.410156 117.34375 333.316406 117.402344 C 333.167969 117.496094 333.019531 117.585938 332.871094 117.679688 C 332.34375 118.007812 331.820312 118.347656 331.300781 118.691406 C 331.121094 118.808594 330.9375 118.929688 330.757812 119.050781 C 330.667969 119.105469 330.582031 119.164062 330.492188 119.222656 C 329.558594 119.835938 328.617188 120.441406 327.679688 121.050781 C 327.21875 121.347656 326.761719 121.644531 326.300781 121.941406 C 325.730469 122.316406 325.15625 122.6875 324.578125 123.058594 C 324.121094 123.355469 323.660156 123.65625 323.203125 123.953125 C 322.628906 124.328125 322.054688 124.699219 321.480469 125.070312 C 321.019531 125.367188 320.5625 125.667969 320.105469 125.964844 C 319.292969 126.492188 318.480469 127.015625 317.667969 127.542969 C 316.902344 128.039062 316.132812 128.539062 315.367188 129.035156 C 314.863281 129.363281 314.359375 129.6875 313.859375 130.015625 C 313.398438 130.3125 312.941406 130.609375 312.480469 130.90625 C 311.90625 131.28125 311.332031 131.652344 310.757812 132.023438 C 310.300781 132.320312 309.839844 132.621094 309.382812 132.917969 C 308.808594 133.292969 308.234375 133.664062 307.660156 134.035156 C 307.199219 134.332031 306.742188 134.632812 306.28125 134.929688 C 305.707031 135.300781 305.132812 135.675781 304.558594 136.046875 C 304.101562 136.34375 303.640625 136.640625 303.183594 136.941406 C 302.609375 137.3125 302.035156 137.6875 301.460938 138.058594 C 301 138.355469 300.542969 138.652344 300.082031 138.949219 C 299.511719 139.324219 298.9375 139.695312 298.359375 140.066406 C 297.902344 140.367188 297.441406 140.664062 296.984375 140.960938 C 296.410156 141.335938 295.835938 141.707031 295.261719 142.078125 C 294.800781 142.375 294.34375 142.675781 293.886719 142.972656 C 293.3125 143.34375 292.738281 143.71875 292.164062 144.089844 C 291.703125 144.386719 291.246094 144.683594 290.785156 144.984375 C 290.210938 145.355469 289.636719 145.730469 289.0625 146.101562 C 288.605469 146.398438 288.144531 146.695312 287.6875 146.992188 C 287.113281 147.367188 286.539062 147.738281 285.964844 148.109375 C 285.503906 148.410156 285.046875 148.707031 284.585938 149.003906 C 284.011719 149.378906 283.4375 149.75 282.863281 150.121094 C 282.40625 150.417969 281.945312 150.71875 281.488281 151.015625 C 280.914062 151.390625 280.339844 151.761719 279.765625 152.132812 C 279.304688 152.429688 278.847656 152.726562 278.386719 153.027344 C 277.816406 153.398438 277.242188 153.773438 276.664062 154.144531 C 276.207031 154.441406 275.746094 154.738281 275.289062 155.035156 C 274.480469 155.5625 273.667969 156.089844 272.855469 156.613281 C 272.15625 157.066406 271.460938 157.515625 270.765625 157.96875 C 270.625 158.0625 270.484375 158.152344 270.34375 158.246094 C 270.136719 158.378906 269.933594 158.511719 269.730469 158.644531 C 269.539062 158.765625 269.351562 158.890625 269.164062 159.011719 C 269.109375 159.046875 269.054688 159.082031 269 159.121094 C 268.691406 159.320312 268.378906 159.511719 268.0625 159.699219 C 267.988281 159.746094 267.914062 159.789062 267.839844 159.835938 C 267.78125 159.871094 267.726562 159.902344 267.667969 159.9375 C 267.667969 159.878906 267.667969 159.816406 267.667969 159.753906 C 267.691406 156.164062 267.707031 152.574219 267.710938 148.984375 C 267.710938 148.550781 267.710938 148.121094 267.714844 147.6875 C 267.714844 147.558594 267.714844 147.558594 267.714844 147.429688 C 267.714844 146.039062 267.722656 144.648438 267.734375 143.261719 C 267.742188 141.835938 267.75 140.40625 267.746094 138.980469 C 267.746094 138.101562 267.75 137.222656 267.761719 136.34375 C 267.765625 135.738281 267.765625 135.136719 267.761719 134.53125 C 267.761719 134.183594 267.761719 133.835938 267.769531 133.488281 C 267.855469 131.992188 267.855469 131.992188 267.257812 130.699219 C 266.949219 130.433594 266.621094 130.230469 266.261719 130.042969 C 265.980469 129.894531 265.734375 129.707031 265.476562 129.515625 C 265.382812 129.449219 265.289062 129.378906 265.191406 129.3125 C 264.878906 129.089844 264.566406 128.859375 264.257812 128.625 C 263.566406 128.105469 262.871094 127.589844 262.171875 127.078125 C 261.773438 126.785156 261.375 126.488281 260.976562 126.195312 C 260.640625 125.949219 260.308594 125.703125 259.972656 125.457031 C 259.296875 124.960938 258.625 124.460938 257.953125 123.957031 C 257.324219 123.484375 256.691406 123.019531 256.058594 122.554688 C 255.660156 122.257812 255.261719 121.964844 254.863281 121.671875 C 254.527344 121.425781 254.191406 121.179688 253.855469 120.933594 C 253.183594 120.433594 252.507812 119.9375 251.839844 119.433594 C 251.210938 118.960938 250.578125 118.496094 249.945312 118.027344 C 249.542969 117.734375 249.144531 117.441406 248.746094 117.144531 C 248.414062 116.902344 248.085938 116.660156 247.753906 116.417969 C 247.003906 115.863281 246.253906 115.308594 245.507812 114.746094 C 244.839844 114.242188 244.164062 113.746094 243.488281 113.25 C 243.15625 113.003906 242.824219 112.761719 242.496094 112.515625 C 242.09375 112.222656 241.695312 111.925781 241.292969 111.632812 C 240.617188 111.136719 239.945312 110.636719 239.273438 110.132812 C 238.644531 109.660156 238.011719 109.195312 237.378906 108.730469 C 236.980469 108.433594 236.582031 108.140625 236.179688 107.847656 C 235.847656 107.601562 235.511719 107.355469 235.175781 107.109375 C 234.503906 106.609375 233.828125 106.113281 233.160156 105.609375 C 232.53125 105.136719 231.898438 104.671875 231.265625 104.203125 C 230.863281 103.910156 230.464844 103.617188 230.066406 103.320312 C 229.734375 103.078125 229.40625 102.835938 229.074219 102.59375 C 228.324219 102.039062 227.574219 101.484375 226.828125 100.921875 C 226.160156 100.417969 225.484375 99.921875 224.808594 99.425781 C 224.476562 99.179688 224.144531 98.9375 223.816406 98.691406 C 223.414062 98.398438 223.011719 98.101562 222.613281 97.808594 C 221.9375 97.3125 221.265625 96.8125 220.59375 96.308594 C 219.964844 95.835938 219.332031 95.371094 218.699219 94.90625 C 218.300781 94.609375 217.898438 94.316406 217.5 94.023438 C 217.171875 93.777344 216.839844 93.535156 216.507812 93.292969 C 215.757812 92.738281 215.011719 92.183594 214.265625 91.621094 C 213.59375 91.121094 212.917969 90.621094 212.242188 90.125 C 211.914062 89.882812 211.582031 89.636719 211.25 89.394531 C 210.847656 89.097656 210.449219 88.804688 210.046875 88.507812 C 209.371094 88.011719 208.699219 87.511719 208.03125 87.007812 C 207.402344 86.535156 206.765625 86.070312 206.132812 85.605469 C 205.734375 85.3125 205.335938 85.015625 204.9375 84.722656 C 204.601562 84.476562 204.269531 84.230469 203.933594 83.984375 C 203.257812 83.488281 202.585938 82.988281 201.914062 82.484375 C 201.285156 82.011719 200.652344 81.546875 200.019531 81.082031 C 199.621094 80.785156 199.21875 80.492188 198.820312 80.199219 C 198.492188 79.953125 198.160156 79.710938 197.828125 79.46875 C 197.078125 78.914062 196.328125 78.359375 195.585938 77.796875 C 194.914062 77.296875 194.238281 76.796875 193.5625 76.300781 C 193.230469 76.058594 192.902344 75.8125 192.570312 75.570312 C 192.167969 75.273438 191.769531 74.980469 191.367188 74.683594 C 190.691406 74.1875 190.019531 73.6875 189.351562 73.183594 C 188.84375 72.804688 188.332031 72.429688 187.824219 72.054688 C 187.296875 71.664062 186.769531 71.273438 186.246094 70.878906 C 185.917969 71.066406 185.621094 71.277344 185.324219 71.511719 C 185.226562 71.585938 185.128906 71.664062 185.03125 71.738281 C 184.984375 71.777344 184.933594 71.8125 184.882812 71.855469 C 184.660156 72.027344 184.4375 72.199219 184.214844 72.371094 C 184.171875 72.402344 184.125 72.4375 184.082031 72.472656 C 183.640625 72.8125 183.195312 73.152344 182.753906 73.488281 C 182.214844 73.902344 181.675781 74.316406 181.136719 74.730469 C 180.476562 75.242188 179.8125 75.746094 179.152344 76.253906 C 178.613281 76.667969 178.074219 77.082031 177.535156 77.496094 C 176.875 78.003906 176.210938 78.511719 175.550781 79.019531 C 175.007812 79.433594 174.472656 79.847656 173.933594 80.261719 C 173.273438 80.769531 172.609375 81.277344 171.949219 81.785156 C 171.40625 82.195312 170.867188 82.609375 170.332031 83.027344 C 169.667969 83.535156 169.007812 84.042969 168.34375 84.550781 C 167.988281 84.824219 167.628906 85.097656 167.273438 85.371094 C 166.855469 85.695312 166.4375 86.015625 166.015625 86.335938 C 165.414062 86.796875 164.816406 87.257812 164.214844 87.71875 C 163.554688 88.226562 162.894531 88.734375 162.230469 89.242188 C 161.691406 89.652344 161.152344 90.066406 160.613281 90.484375 C 159.953125 90.992188 159.292969 91.5 158.628906 92.003906 C 158.089844 92.417969 157.550781 92.832031 157.011719 93.246094 C 156.351562 93.757812 155.691406 94.265625 155.027344 94.769531 C 154.488281 95.183594 153.949219 95.597656 153.410156 96.011719 C 152.75 96.519531 152.085938 97.027344 151.425781 97.535156 C 150.886719 97.949219 150.347656 98.363281 149.808594 98.777344 C 149.148438 99.285156 148.484375 99.792969 147.824219 100.300781 C 147.285156 100.710938 146.746094 101.128906 146.207031 101.542969 C 145.546875 102.050781 144.882812 102.558594 144.222656 103.066406 C 143.679688 103.476562 143.140625 103.890625 142.605469 104.308594 C 141.941406 104.816406 141.28125 105.324219 140.617188 105.832031 C 140.261719 106.105469 139.902344 106.378906 139.546875 106.652344 C 139.128906 106.976562 138.710938 107.296875 138.289062 107.617188 C 137.6875 108.074219 137.089844 108.535156 136.488281 109 C 135.828125 109.507812 135.167969 110.015625 134.503906 110.519531 C 133.964844 110.933594 133.425781 111.347656 132.886719 111.761719 C 132.226562 112.273438 131.566406 112.78125 130.902344 113.285156 C 130.363281 113.699219 129.824219 114.113281 129.285156 114.527344 C 128.625 115.039062 127.964844 115.542969 127.300781 116.050781 C 126.761719 116.464844 126.222656 116.878906 125.683594 117.292969 C 125.023438 117.800781 124.359375 118.308594 123.699219 118.816406 C 123.160156 119.230469 122.621094 119.644531 122.082031 120.058594 C 121.421875 120.566406 120.757812 121.074219 120.097656 121.582031 C 119.558594 121.992188 119.019531 122.40625 118.480469 122.824219 C 117.820312 123.332031 117.15625 123.839844 116.496094 124.34375 C 115.953125 124.757812 115.414062 125.171875 114.878906 125.585938 C 114.21875 126.097656 113.554688 126.605469 112.894531 127.109375 C 112.351562 127.523438 111.8125 127.9375 111.277344 128.351562 C 110.675781 128.816406 110.070312 129.277344 109.46875 129.738281 C 109.414062 129.78125 109.359375 129.824219 109.300781 129.867188 C 109.246094 129.910156 109.191406 129.953125 109.132812 129.996094 C 109.078125 130.039062 109.027344 130.085938 108.96875 130.128906 C 108.761719 130.28125 108.761719 130.28125 108.511719 130.394531 C 108.191406 130.566406 107.949219 130.722656 107.757812 131.035156 C 107.554688 131.722656 107.625 132.488281 107.632812 133.195312 C 107.632812 133.425781 107.632812 133.652344 107.632812 133.878906 C 107.628906 134.375 107.628906 134.871094 107.632812 135.363281 C 107.640625 136.105469 107.640625 136.847656 107.636719 137.589844 C 107.636719 138.855469 107.636719 140.121094 107.640625 141.382812 C 107.648438 142.664062 107.648438 143.945312 107.648438 145.230469 C 107.648438 145.308594 107.648438 145.390625 107.648438 145.472656 C 107.648438 145.886719 107.648438 146.300781 107.648438 146.710938 C 107.648438 149.699219 107.65625 152.6875 107.660156 155.671875 C 107.667969 158.632812 107.671875 161.589844 107.671875 164.550781 C 107.671875 164.6875 107.671875 164.6875 107.671875 164.828125 C 107.675781 165.855469 107.675781 166.882812 107.675781 167.90625 C 107.675781 169.804688 107.675781 171.703125 107.675781 173.605469 C 107.675781 173.746094 107.675781 173.746094 107.675781 173.890625 C 107.679688 178.414062 107.683594 182.9375 107.691406 187.457031 C 107.691406 187.757812 107.691406 188.058594 107.691406 188.359375 C 107.695312 190.164062 107.699219 191.972656 107.699219 193.777344 C 107.707031 198.097656 107.710938 202.421875 107.71875 206.742188 C 107.71875 207.042969 107.71875 207.339844 107.71875 207.640625 C 107.722656 212.160156 107.726562 216.679688 107.730469 221.199219 C 107.730469 221.292969 107.730469 221.386719 107.730469 221.484375 C 107.730469 223.382812 107.734375 225.277344 107.734375 227.175781 C 107.734375 228.199219 107.734375 229.226562 107.734375 230.25 C 107.734375 230.34375 107.734375 230.433594 107.734375 230.527344 C 107.738281 233.578125 107.742188 236.628906 107.75 239.679688 C 107.753906 242.566406 107.757812 245.453125 107.757812 248.339844 C 107.757812 248.75 107.757812 249.160156 107.757812 249.570312 C 107.757812 249.652344 107.757812 249.734375 107.757812 249.816406 C 107.757812 251.09375 107.761719 252.371094 107.765625 253.652344 C 107.773438 254.90625 107.773438 256.164062 107.769531 257.417969 C 107.769531 258.15625 107.773438 258.890625 107.777344 259.628906 C 107.78125 260.117188 107.78125 260.605469 107.777344 261.097656 C 107.773438 261.375 107.777344 261.652344 107.777344 261.929688 C 107.78125 262.226562 107.78125 262.523438 107.777344 262.820312 C 107.777344 262.90625 107.78125 262.992188 107.785156 263.082031 C 107.773438 263.453125 107.761719 263.660156 107.488281 263.925781 C 107.277344 264.078125 107.0625 264.207031 106.835938 264.332031 C 106.753906 264.386719 106.667969 264.441406 106.582031 264.5 C 106.515625 264.542969 106.445312 264.585938 106.371094 264.632812 C 106.25 264.707031 106.25 264.707031 106.128906 264.785156 C 106 264.867188 106 264.867188 105.871094 264.949219 C 105.6875 265.066406 105.503906 265.183594 105.316406 265.304688 C 105.269531 265.332031 105.222656 265.363281 105.171875 265.394531 C 104.65625 265.726562 104.140625 266.0625 103.625 266.398438 C 103.535156 266.460938 103.445312 266.519531 103.351562 266.578125 C 103.171875 266.695312 102.996094 266.8125 102.816406 266.929688 C 101.882812 267.542969 100.941406 268.152344 100.003906 268.757812 C 99.542969 269.054688 99.085938 269.351562 98.625 269.652344 C 98.054688 270.023438 97.480469 270.398438 96.902344 270.769531 C 96.445312 271.066406 95.984375 271.363281 95.527344 271.664062 C 94.953125 272.035156 94.378906 272.40625 93.804688 272.78125 C 93.34375 273.078125 92.886719 273.375 92.429688 273.671875 C 91.910156 274.007812 91.394531 274.34375 90.878906 274.679688 C 90.082031 275.195312 89.285156 275.710938 88.492188 276.226562 C 87.636719 276.785156 86.785156 277.335938 85.929688 277.890625 C 85.472656 278.1875 85.011719 278.484375 84.554688 278.785156 C 83.980469 279.15625 83.40625 279.53125 82.832031 279.902344 C 82.371094 280.199219 81.914062 280.496094 81.453125 280.792969 C 80.882812 281.167969 80.308594 281.539062 79.730469 281.910156 C 79.273438 282.210938 78.8125 282.507812 78.355469 282.804688 C 77.78125 283.179688 77.207031 283.550781 76.632812 283.921875 C 76.171875 284.21875 75.714844 284.519531 75.257812 284.816406 C 74.683594 285.1875 74.109375 285.5625 73.535156 285.933594 C 73.074219 286.230469 72.617188 286.527344 72.15625 286.828125 C 71.582031 287.199219 71.007812 287.574219 70.433594 287.945312 C 69.976562 288.242188 69.515625 288.539062 69.058594 288.835938 C 68.484375 289.210938 67.910156 289.582031 67.335938 289.953125 C 66.875 290.253906 66.417969 290.550781 65.957031 290.847656 C 65.441406 291.183594 64.925781 291.519531 64.410156 291.855469 C 63.613281 292.367188 62.816406 292.886719 62.019531 293.402344 C 61.167969 293.957031 60.316406 294.511719 59.460938 295.066406 C 59 295.363281 58.542969 295.660156 58.085938 295.960938 C 57.511719 296.332031 56.9375 296.703125 56.363281 297.078125 C 55.902344 297.375 55.445312 297.671875 54.984375 297.96875 C 54.410156 298.34375 53.835938 298.714844 53.261719 299.085938 C 52.804688 299.382812 52.34375 299.683594 51.886719 299.980469 C 51.3125 300.355469 50.738281 300.726562 50.164062 301.097656 C 49.703125 301.394531 49.246094 301.691406 48.785156 301.992188 C 48.210938 302.363281 47.636719 302.738281 47.0625 303.109375 C 46.605469 303.40625 46.144531 303.703125 45.6875 304.003906 C 45.113281 304.375 44.539062 304.746094 43.964844 305.121094 C 43.503906 305.417969 43.046875 305.714844 42.585938 306.011719 C 42.070312 306.347656 41.554688 306.683594 41.039062 307.019531 C 40.507812 307.363281 39.976562 307.707031 39.445312 308.050781 C 39.34375 308.117188 39.34375 308.117188 39.238281 308.183594 C 39.175781 308.226562 39.109375 308.269531 39.039062 308.3125 C 38.945312 308.375 38.945312 308.375 38.847656 308.441406 C 38.710938 308.53125 38.574219 308.621094 38.4375 308.710938 C 38.371094 308.757812 38.304688 308.804688 38.234375 308.851562 C 38.144531 308.914062 38.144531 308.914062 38.050781 308.980469 C 37.898438 309.070312 37.898438 309.070312 37.730469 309.070312 C 37.722656 303.179688 37.714844 297.289062 37.710938 291.398438 C 37.710938 291.339844 37.710938 291.28125 37.710938 291.222656 C 37.703125 285.019531 37.699219 278.8125 37.679688 254.203125 C 37.679688 253.996094 37.679688 253.789062 37.679688 253.585938 C 37.675781 247.761719 37.671875 241.941406 37.667969 236.117188 C 37.667969 235.902344 37.667969 235.6875 37.667969 235.472656 C 37.667969 235.402344 37.667969 235.328125 37.667969 235.257812 C 37.667969 232.578125 37.667969 229.902344 37.664062 227.226562 C 37.664062 226.9375 37.664062 226.644531 37.664062 226.355469 C 37.660156 219.492188 37.65625 212.628906 37.648438 205.761719 C 37.648438 205.691406 37.648438 205.617188 37.648438 205.542969 C 37.644531 203.140625 37.644531 200.738281 37.640625 198.335938 C 37.636719 196.164062 37.636719 193.992188 37.632812 191.820312 C 37.632812 191.714844 37.632812 191.714844 37.632812 191.605469 C 37.628906 187.140625 37.625 182.671875 37.621094 178.207031 C 37.621094 178.136719 37.621094 178.070312 37.621094 178 C 37.621094 174.96875 37.621094 171.941406 37.617188 168.910156 C 37.617188 167.695312 37.617188 166.476562 37.617188 165.257812 C 37.617188 165.054688 37.617188 164.851562 37.617188 164.648438 C 37.617188 161.558594 37.613281 158.46875 37.609375 155.375 C 37.609375 155.308594 37.609375 155.242188 37.609375 155.175781 C 37.609375 154.101562 37.605469 153.027344 37.605469 151.957031 C 37.601562 148.910156 37.59375 145.867188 37.59375 142.820312 C 37.59375 142.757812 37.59375 142.699219 37.59375 142.632812 C 37.59375 141.285156 37.59375 139.9375 37.597656 138.589844 C 37.597656 138.054688 37.597656 137.515625 37.597656 136.980469 C 37.597656 136.921875 37.597656 136.863281 37.597656 136.800781 C 37.597656 134.941406 37.59375 133.082031 37.589844 131.222656 C 37.582031 129.339844 37.582031 127.457031 37.585938 125.574219 C 37.589844 124.503906 37.585938 123.433594 37.582031 122.363281 C 37.578125 121.652344 37.578125 120.941406 37.582031 120.230469 C 37.585938 119.828125 37.585938 119.425781 37.578125 119.019531 C 37.574219 118.65625 37.578125 118.289062 37.582031 117.921875 C 37.582031 117.792969 37.582031 117.660156 37.578125 117.527344 C 37.558594 116.582031 37.558594 116.582031 37.839844 116.230469 C 38.117188 115.964844 38.425781 115.757812 38.746094 115.550781 C 39.007812 115.378906 39.246094 115.183594 39.488281 114.988281 C 39.585938 114.910156 39.683594 114.835938 39.78125 114.757812 C 39.828125 114.71875 39.878906 114.683594 39.929688 114.644531 C 41.636719 113.300781 43.347656 111.957031 45.058594 110.613281 C 45.105469 110.574219 45.15625 110.535156 45.207031 110.496094 C 45.304688 110.417969 45.402344 110.34375 45.5 110.265625 C 45.738281 110.078125 45.980469 109.886719 46.21875 109.699219 C 46.832031 109.21875 47.445312 108.738281 48.058594 108.261719 C 48.589844 107.847656 49.121094 107.433594 49.648438 107.015625 C 49.894531 106.824219 50.136719 106.632812 50.378906 106.441406 C 50.476562 106.367188 50.574219 106.289062 50.671875 106.210938 C 52.820312 104.523438 54.972656 102.832031 57.121094 101.144531 C 57.167969 101.105469 57.21875 101.066406 57.265625 101.027344 C 57.367188 100.953125 57.464844 100.875 57.5625 100.796875 C 57.800781 100.609375 58.042969 100.421875 58.28125 100.230469 C 58.894531 99.75 59.507812 99.269531 60.121094 98.792969 C 60.652344 98.378906 61.183594 97.964844 61.710938 97.546875 C 61.953125 97.355469 62.199219 97.167969 62.441406 96.976562 C 62.539062 96.898438 62.636719 96.820312 62.734375 96.746094 C 65.273438 94.75 67.816406 92.75 70.355469 90.753906 C 70.402344 90.71875 70.453125 90.679688 70.503906 90.640625 C 70.601562 90.5625 70.699219 90.484375 70.796875 90.410156 C 71.035156 90.21875 71.277344 90.03125 71.515625 89.84375 C 72.128906 89.359375 72.742188 88.882812 73.355469 88.40625 C 73.886719 87.992188 74.417969 87.574219 74.949219 87.160156 C 75.191406 86.96875 75.433594 86.777344 75.675781 86.585938 C 75.773438 86.511719 75.871094 86.433594 75.96875 86.355469 C 78.507812 84.359375 81.050781 82.363281 83.589844 80.367188 C 83.640625 80.328125 83.6875 80.289062 83.738281 80.25 C 83.835938 80.171875 83.933594 80.097656 84.03125 80.019531 C 84.273438 79.832031 84.511719 79.640625 84.75 79.453125 C 85.363281 78.972656 85.976562 78.492188 86.589844 78.015625 C 87.125 77.601562 87.652344 77.1875 88.183594 76.769531 C 88.425781 76.578125 88.667969 76.386719 88.910156 76.199219 C 89.007812 76.121094 89.105469 76.042969 89.203125 75.96875 C 91.746094 73.96875 94.285156 71.972656 96.824219 69.976562 C 96.875 69.9375 96.921875 69.902344 96.972656 69.863281 C 97.070312 69.785156 97.167969 69.707031 97.265625 69.628906 C 97.507812 69.441406 97.746094 69.253906 97.988281 69.0625 C 98.597656 68.582031 99.210938 68.105469 99.828125 67.625 C 100.359375 67.214844 100.886719 66.796875 101.417969 66.378906 C 101.660156 66.191406 101.902344 66 102.144531 65.808594 C 102.242188 65.730469 102.339844 65.65625 102.4375 65.578125 C 104.589844 63.890625 106.738281 62.199219 108.886719 60.507812 C 108.9375 60.472656 108.984375 60.433594 109.035156 60.394531 C 109.132812 60.316406 109.230469 60.242188 109.328125 60.164062 C 109.570312 59.972656 109.808594 59.785156 110.050781 59.597656 C 110.660156 59.117188 111.273438 58.636719 111.886719 58.160156 C 112.421875 57.746094 112.949219 57.328125 113.480469 56.914062 C 113.722656 56.722656 113.964844 56.53125 114.207031 56.339844 C 114.304688 56.265625 114.402344 56.1875 114.5 56.109375 C 118.3125 53.117188 118.3125 53.117188 122.125 50.121094 C 122.171875 50.082031 122.21875 50.042969 122.269531 50.003906 C 122.367188 49.929688 122.464844 49.851562 122.5625 49.773438 C 122.804688 49.585938 123.042969 49.398438 123.285156 49.207031 C 123.894531 48.726562 124.507812 48.246094 125.125 47.769531 C 125.65625 47.355469 126.1875 46.941406 126.714844 46.523438 C 126.957031 46.332031 127.199219 46.144531 127.441406 45.953125 C 127.539062 45.875 127.636719 45.796875 127.734375 45.722656 C 131.546875 42.726562 131.546875 42.726562 135.359375 39.730469 C 135.429688 39.675781 135.429688 39.675781 135.503906 39.617188 C 135.601562 39.539062 135.699219 39.460938 135.796875 39.386719 C 136.039062 39.195312 136.277344 39.007812 136.519531 38.820312 C 137.128906 38.335938 137.746094 37.859375 138.359375 37.382812 C 138.890625 36.96875 139.421875 36.550781 139.949219 36.136719 C 140.191406 35.945312 140.433594 35.753906 140.675781 35.5625 C 140.773438 35.488281 140.871094 35.410156 140.96875 35.332031 C 143.121094 33.644531 145.269531 31.953125 147.421875 30.265625 C 147.492188 30.207031 147.492188 30.207031 147.566406 30.148438 C 147.664062 30.070312 147.761719 29.996094 147.859375 29.917969 C 148.101562 29.730469 148.339844 29.539062 148.582031 29.351562 C 149.191406 28.871094 149.804688 28.390625 150.421875 27.914062 C 150.953125 27.5 151.484375 27.085938 152.011719 26.667969 C 152.253906 26.476562 152.496094 26.285156 152.738281 26.097656 C 152.835938 26.019531 152.933594 25.941406 153.03125 25.867188 C 155.574219 23.867188 158.113281 21.871094 160.65625 19.875 C 160.703125 19.835938 160.753906 19.800781 160.800781 19.761719 C 160.898438 19.683594 161 19.605469 161.097656 19.527344 C 161.335938 19.339844 161.578125 19.152344 161.816406 18.960938 C 162.429688 18.480469 163.042969 18.003906 163.65625 17.523438 C 164.1875 17.109375 164.71875 16.695312 165.246094 16.277344 C 165.488281 16.089844 165.730469 15.898438 165.976562 15.707031 C 166.074219 15.628906 166.171875 15.554688 166.269531 15.476562 C 168.808594 13.480469 171.351562 11.484375 173.890625 9.484375 C 173.964844 9.429688 173.964844 9.429688 174.035156 9.371094 C 174.136719 9.292969 174.234375 9.214844 174.332031 9.140625 C 174.570312 8.949219 174.8125 8.761719 175.050781 8.574219 C 175.664062 8.09375 176.277344 7.613281 176.890625 7.136719 C 177.421875 6.722656 177.953125 6.304688 178.480469 5.890625 C 178.722656 5.699219 178.96875 5.507812 179.210938 5.316406 C 179.308594 5.242188 179.40625 5.164062 179.503906 5.085938 C 180.480469 4.320312 181.457031 3.550781 182.433594 2.785156 C 182.484375 2.746094 182.53125 2.707031 182.582031 2.667969 C 182.679688 2.589844 182.777344 2.515625 182.875 2.4375 C 183.125 2.242188 183.375 2.042969 183.628906 1.84375 C 183.679688 1.804688 183.730469 1.761719 183.785156 1.71875 C 183.882812 1.644531 183.980469 1.566406 184.078125 1.488281 C 184.167969 1.417969 184.257812 1.347656 184.347656 1.277344 C 184.445312 1.203125 184.542969 1.125 184.636719 1.046875 C 185.011719 0.753906 185.011719 0.753906 185.289062 0.746094 Z M 185.289062 0.746094 " fill-opacity="1" fill-rule="nonzero"/></g><path fill="#19562e" d="M 337.023438 130.53125 C 337.023438 210.792969 337.023438 291.054688 337.023438 373.75 C 314.578125 373.75 292.132812 373.75 269.007812 373.75 C 268.980469 373.695312 268.953125 373.640625 268.921875 373.582031 C 268.976562 373.582031 269.035156 373.582031 269.089844 373.582031 C 269.089844 373.507812 269.089844 373.433594 269.089844 373.355469 C 269.082031 367.023438 269.074219 360.6875 269.070312 354.355469 C 269.070312 354.261719 269.070312 354.261719 269.070312 354.164062 C 269.0625 347.449219 269.054688 340.734375 269.035156 314.167969 C 269.035156 313.945312 269.035156 313.726562 269.035156 313.503906 C 269.027344 306.964844 269.023438 300.429688 269.023438 293.890625 C 269.019531 291.125 269.019531 288.359375 269.015625 285.59375 C 269.015625 285.132812 269.015625 284.671875 269.015625 284.210938 C 269.011719 277.132812 269.007812 270.054688 269 262.980469 C 269 262.90625 269 262.832031 269 262.753906 C 268.996094 260.308594 268.992188 257.859375 268.992188 255.414062 C 268.988281 253.21875 268.984375 251.019531 268.984375 248.824219 C 268.984375 248.75 268.984375 248.679688 268.980469 248.605469 C 268.976562 244.117188 268.972656 239.628906 268.972656 235.140625 C 268.972656 235.070312 268.972656 235.003906 268.972656 234.929688 C 268.96875 231.90625 268.96875 228.878906 268.96875 225.855469 C 268.96875 224.640625 268.96875 223.429688 268.96875 222.214844 C 268.96875 222.011719 268.96875 221.8125 268.96875 221.613281 C 268.96875 218.539062 268.964844 215.464844 268.960938 212.394531 C 268.960938 212.328125 268.960938 212.261719 268.960938 212.191406 C 268.957031 211.128906 268.957031 210.0625 268.953125 208.996094 C 268.949219 205.976562 268.945312 202.953125 268.945312 199.933594 C 268.945312 199.875 268.945312 199.8125 268.945312 199.75 C 268.945312 198.414062 268.945312 197.082031 268.945312 195.746094 C 268.945312 195.214844 268.945312 194.683594 268.945312 194.152344 C 268.945312 194.09375 268.945312 194.035156 268.945312 193.976562 C 268.949219 192.136719 268.945312 190.300781 268.9375 188.460938 C 268.933594 186.605469 268.933594 184.75 268.9375 182.894531 C 268.9375 181.839844 268.9375 180.785156 268.929688 179.730469 C 268.925781 179.03125 268.929688 178.332031 268.933594 177.632812 C 268.933594 177.234375 268.9375 176.839844 268.929688 176.441406 C 268.925781 176.082031 268.925781 175.722656 268.933594 175.363281 C 268.933594 175.234375 268.933594 175.105469 268.929688 174.976562 C 268.90625 174.042969 268.90625 174.042969 269.214844 173.714844 C 269.519531 173.460938 269.851562 173.265625 270.203125 173.085938 C 270.378906 172.992188 270.542969 172.882812 270.707031 172.773438 C 270.808594 172.707031 270.90625 172.644531 271.007812 172.578125 C 271.0625 172.542969 271.121094 172.503906 271.179688 172.46875 C 271.808594 172.0625 272.441406 171.65625 273.074219 171.253906 C 273.835938 170.765625 274.59375 170.273438 275.351562 169.78125 C 276.226562 169.210938 277.101562 168.648438 277.980469 168.085938 C 278.742188 167.597656 279.5 167.105469 280.257812 166.613281 C 280.941406 166.164062 281.625 165.726562 282.3125 165.289062 C 283.066406 164.804688 283.816406 164.320312 284.566406 163.832031 C 285.445312 163.257812 286.328125 162.691406 287.210938 162.128906 C 288.0625 161.582031 288.910156 161.03125 289.757812 160.480469 C 290.636719 159.90625 291.519531 159.339844 292.402344 158.777344 C 293.257812 158.230469 294.105469 157.679688 294.953125 157.128906 C 295.832031 156.554688 296.714844 155.988281 297.597656 155.425781 C 298.449219 154.878906 299.296875 154.332031 300.144531 153.78125 C 300.625 153.464844 301.105469 153.15625 301.589844 152.84375 C 301.753906 152.734375 301.921875 152.625 302.089844 152.519531 C 302.796875 152.058594 303.503906 151.605469 304.214844 151.152344 C 305.066406 150.605469 305.917969 150.058594 306.765625 149.503906 C 307.640625 148.933594 308.523438 148.363281 309.40625 147.800781 C 310.261719 147.253906 311.109375 146.707031 311.957031 146.152344 C 312.835938 145.582031 313.71875 145.015625 314.601562 144.449219 C 315.453125 143.902344 316.304688 143.355469 317.152344 142.800781 C 318.023438 142.234375 318.902344 141.667969 319.78125 141.109375 C 320.542969 140.621094 321.300781 140.128906 322.058594 139.632812 C 322.738281 139.1875 323.425781 138.75 324.113281 138.308594 C 324.867188 137.828125 325.617188 137.339844 326.363281 136.855469 C 327.242188 136.28125 328.125 135.714844 329.007812 135.148438 C 329.863281 134.605469 330.710938 134.054688 331.558594 133.503906 C 332.707031 132.753906 333.859375 132.007812 335.019531 131.277344 C 335.183594 131.171875 335.34375 131.058594 335.503906 130.945312 C 335.621094 130.867188 335.621094 130.867188 335.738281 130.785156 C 335.804688 130.734375 335.871094 130.6875 335.9375 130.636719 C 336.1875 130.53125 336.1875 130.53125 337.023438 130.53125 Z M 337.023438 130.53125 " fill-opacity="1" fill-rule="nonzero"/><path fill="#161517" d="M 220.671875 205.433594 C 220.941406 205.558594 221.078125 205.660156 221.25 205.902344 C 221.296875 205.964844 221.339844 206.027344 221.386719 206.089844 C 221.433594 206.160156 221.484375 206.226562 221.53125 206.296875 C 221.636719 206.441406 221.742188 206.585938 221.847656 206.730469 C 221.902344 206.804688 221.957031 206.882812 222.011719 206.960938 C 222.292969 207.34375 222.582031 207.71875 222.871094 208.097656 C 223.269531 208.617188 223.660156 209.136719 224.035156 209.671875 C 224.351562 210.117188 224.683594 210.550781 225.015625 210.984375 C 225.433594 211.527344 225.84375 212.078125 226.246094 212.636719 C 226.636719 213.1875 227.042969 213.730469 227.453125 214.265625 C 228.128906 215.148438 228.789062 216.042969 229.445312 216.9375 C 230.066406 217.789062 230.699219 218.628906 231.339844 219.46875 C 231.679688 219.910156 232.007812 220.359375 232.328125 220.816406 C 232.644531 221.261719 232.976562 221.695312 233.308594 222.125 C 233.726562 222.671875 234.136719 223.222656 234.535156 223.78125 C 234.929688 224.332031 235.335938 224.871094 235.746094 225.410156 C 236.421875 226.292969 237.082031 227.183594 237.738281 228.082031 C 238.359375 228.929688 238.992188 229.773438 239.632812 230.609375 C 239.972656 231.054688 240.300781 231.503906 240.621094 231.960938 C 240.9375 232.40625 241.269531 232.835938 241.597656 233.269531 C 242.019531 233.816406 242.429688 234.363281 242.828125 234.921875 C 243.226562 235.476562 243.632812 236.019531 244.042969 236.558594 C 244.457031 237.097656 244.863281 237.636719 245.257812 238.191406 C 245.652344 238.742188 246.058594 239.28125 246.46875 239.820312 C 247.144531 240.703125 247.804688 241.59375 248.460938 242.492188 C 249.082031 243.34375 249.714844 244.183594 250.355469 245.019531 C 250.691406 245.464844 251.023438 245.914062 251.34375 246.371094 C 251.660156 246.816406 251.988281 247.246094 252.320312 247.679688 C 252.738281 248.226562 253.152344 248.773438 253.550781 249.335938 C 253.945312 249.882812 254.351562 250.425781 254.761719 250.960938 C 255.4375 251.84375 256.097656 252.738281 256.753906 253.636719 C 257.375 254.484375 258.007812 255.328125 258.648438 256.164062 C 258.984375 256.609375 259.316406 257.054688 259.636719 257.511719 C 259.953125 257.957031 260.28125 258.390625 260.613281 258.824219 C 261.03125 259.367188 261.445312 259.917969 261.84375 260.476562 C 262.238281 261.027344 262.644531 261.570312 263.054688 262.105469 C 263.730469 262.988281 264.390625 263.882812 265.046875 264.777344 C 265.667969 265.628906 266.296875 266.46875 266.9375 267.304688 C 267.289062 267.765625 267.632812 268.230469 267.96875 268.707031 C 268.257812 269.117188 268.558594 269.511719 268.863281 269.910156 C 269.125 270.277344 269.101562 270.621094 269.101562 271.058594 C 269.101562 271.128906 269.101562 271.199219 269.101562 271.273438 C 269.101562 271.519531 269.101562 271.761719 269.101562 272.007812 C 269.101562 272.183594 269.101562 272.359375 269.101562 272.535156 C 269.101562 273.023438 269.101562 273.511719 269.101562 274 C 269.101562 274.53125 269.101562 275.0625 269.101562 275.589844 C 269.101562 276.519531 269.101562 277.449219 269.101562 278.378906 C 269.101562 279.378906 269.101562 280.375 269.101562 281.375 C 269.101562 281.46875 269.101562 281.46875 269.101562 281.566406 C 269.101562 281.886719 269.101562 282.207031 269.101562 282.527344 C 269.101562 284.855469 269.101562 287.179688 269.097656 289.507812 C 269.097656 291.808594 269.097656 294.113281 269.097656 296.417969 C 269.097656 296.488281 269.097656 296.5625 269.097656 296.632812 C 269.097656 297.289062 269.097656 297.941406 269.097656 298.59375 C 269.097656 300.21875 269.097656 301.839844 269.097656 303.464844 C 269.097656 303.539062 269.097656 303.613281 269.097656 303.6875 C 269.097656 307.285156 269.097656 310.882812 269.097656 314.484375 C 269.097656 315.730469 269.097656 316.980469 269.097656 318.230469 C 269.097656 318.347656 269.097656 318.347656 269.097656 318.464844 C 269.09375 322.0625 269.09375 325.664062 269.09375 329.261719 C 269.09375 329.496094 269.09375 329.730469 269.09375 329.964844 C 269.09375 331.511719 269.09375 333.0625 269.09375 334.609375 C 269.09375 337.691406 269.09375 340.769531 269.09375 343.851562 C 269.09375 344 269.09375 344.144531 269.09375 344.292969 C 269.09375 350.898438 269.09375 357.503906 269.09375 364.113281 C 269.09375 364.207031 269.09375 364.207031 269.09375 364.300781 C 269.089844 367.394531 269.089844 370.488281 269.089844 373.582031 C 268.785156 373.519531 268.675781 373.441406 268.476562 373.195312 C 268.285156 372.964844 268.089844 372.746094 267.875 372.535156 C 267.617188 372.28125 267.378906 372.011719 267.144531 371.738281 C 266.957031 371.53125 266.761719 371.335938 266.5625 371.144531 C 266.414062 370.992188 266.277344 370.835938 266.136719 370.675781 C 265.832031 370.320312 265.511719 369.980469 265.191406 369.640625 C 265.070312 369.515625 264.953125 369.390625 264.835938 369.265625 C 264.777344 369.203125 264.714844 369.140625 264.65625 369.074219 C 264.398438 368.800781 264.140625 368.527344 263.886719 368.253906 C 263.839844 368.203125 263.792969 368.152344 263.742188 368.097656 C 263.644531 367.996094 263.550781 367.890625 263.453125 367.789062 C 263.261719 367.582031 263.066406 367.371094 262.871094 367.164062 C 262.726562 367.007812 262.578125 366.851562 262.433594 366.691406 C 262.234375 366.480469 262.035156 366.269531 261.839844 366.058594 C 261.378906 365.566406 260.921875 365.078125 260.46875 364.582031 C 259.988281 364.0625 259.503906 363.546875 259.023438 363.03125 C 258.355469 362.320312 257.691406 361.613281 257.035156 360.894531 C 256.554688 360.375 256.070312 359.859375 255.585938 359.34375 C 255.136719 358.867188 254.691406 358.386719 254.242188 357.90625 C 254.09375 357.746094 253.945312 357.585938 253.796875 357.429688 C 253.339844 356.9375 252.882812 356.445312 252.425781 355.953125 C 251.949219 355.433594 251.464844 354.917969 250.980469 354.402344 C 250.53125 353.921875 250.082031 353.441406 249.636719 352.960938 C 249.488281 352.804688 249.339844 352.644531 249.191406 352.484375 C 248.730469 351.996094 248.273438 351.503906 247.820312 351.007812 C 247.339844 350.488281 246.855469 349.972656 246.371094 349.457031 C 245.921875 348.980469 245.476562 348.5 245.027344 348.019531 C 244.878906 347.859375 244.730469 347.703125 244.582031 347.542969 C 244.125 347.050781 243.667969 346.558594 243.210938 346.066406 C 242.734375 345.546875 242.25 345.03125 241.765625 344.515625 C 241.101562 343.804688 240.4375 343.09375 239.777344 342.378906 C 239.296875 341.859375 238.816406 341.34375 238.332031 340.828125 C 237.882812 340.351562 237.433594 339.871094 236.988281 339.390625 C 236.839844 339.230469 236.691406 339.070312 236.542969 338.914062 C 236.082031 338.421875 235.625 337.929688 235.171875 337.4375 C 234.691406 336.917969 234.207031 336.402344 233.722656 335.886719 C 233.273438 335.40625 232.828125 334.925781 232.378906 334.445312 C 232.230469 334.289062 232.082031 334.128906 231.933594 333.96875 C 231.476562 333.480469 231.019531 332.988281 230.5625 332.492188 C 230.085938 331.972656 229.601562 331.457031 229.117188 330.941406 C 228.667969 330.464844 228.21875 329.984375 227.773438 329.503906 C 227.625 329.34375 227.476562 329.183594 227.328125 329.027344 C 226.867188 328.535156 226.410156 328.042969 225.957031 327.550781 C 225.476562 327.03125 224.992188 326.515625 224.507812 326 C 224.058594 325.519531 223.613281 325.039062 223.164062 324.558594 C 223.015625 324.402344 222.867188 324.242188 222.71875 324.082031 C 222.476562 323.824219 222.234375 323.5625 221.988281 323.300781 C 221.894531 323.195312 221.796875 323.09375 221.699219 322.988281 C 221.558594 322.839844 221.421875 322.691406 221.28125 322.539062 C 221.238281 322.496094 221.195312 322.449219 221.152344 322.402344 C 220.652344 321.863281 220.652344 321.863281 220.652344 321.46875 C 220.652344 321.398438 220.652344 321.332031 220.652344 321.257812 C 220.652344 321.183594 220.652344 321.105469 220.652344 321.027344 C 220.652344 320.949219 220.652344 320.867188 220.652344 320.78125 C 220.652344 320.507812 220.652344 320.234375 220.652344 319.957031 C 220.652344 319.757812 220.652344 319.558594 220.652344 319.363281 C 220.652344 318.925781 220.652344 318.492188 220.652344 318.054688 C 220.652344 317.40625 220.652344 316.753906 220.652344 316.101562 C 220.652344 314.992188 220.652344 313.882812 220.652344 312.773438 C 220.65625 311.644531 220.65625 310.519531 220.65625 309.394531 C 220.65625 309.324219 220.65625 309.253906 220.65625 309.179688 C 220.65625 308.816406 220.65625 308.457031 220.65625 308.09375 C 220.65625 305.472656 220.65625 302.851562 220.65625 300.226562 C 220.65625 297.628906 220.65625 295.03125 220.65625 292.433594 C 220.65625 292.355469 220.65625 292.273438 220.65625 292.191406 C 220.65625 291.453125 220.65625 290.71875 220.65625 289.980469 C 220.65625 288.152344 220.660156 286.320312 220.660156 284.492188 C 220.660156 284.40625 220.660156 284.324219 220.660156 284.238281 C 220.660156 280.179688 220.660156 276.125 220.660156 272.066406 C 220.660156 270.660156 220.660156 269.25 220.664062 267.84375 C 220.664062 267.753906 220.664062 267.667969 220.664062 267.578125 C 220.664062 263.519531 220.664062 259.460938 220.664062 255.402344 C 220.664062 255.140625 220.664062 254.875 220.664062 254.613281 C 220.664062 252.867188 220.664062 251.121094 220.664062 249.375 C 220.664062 245.902344 220.667969 242.425781 220.667969 238.953125 C 220.667969 238.789062 220.667969 238.625 220.667969 238.457031 C 220.667969 231.007812 220.667969 223.558594 220.671875 216.109375 C 220.671875 216.007812 220.671875 216.007812 220.671875 215.898438 C 220.671875 212.410156 220.671875 208.921875 220.671875 205.433594 Z M 220.671875 205.433594 " fill-opacity="1" fill-rule="nonzero"/><path fill="#161517" d="M 106.667969 278.910156 C 107.089844 278.992188 107.179688 279.039062 107.484375 279.308594 C 107.886719 279.644531 108.292969 279.96875 108.710938 280.285156 C 108.773438 280.332031 108.832031 280.378906 108.898438 280.429688 C 109.019531 280.523438 109.140625 280.613281 109.261719 280.707031 C 109.929688 281.214844 110.59375 281.730469 111.253906 282.246094 C 111.929688 282.773438 112.609375 283.292969 113.292969 283.8125 C 113.621094 284.066406 113.953125 284.320312 114.285156 284.574219 C 114.457031 284.707031 114.625 284.839844 114.796875 284.972656 C 115.320312 285.371094 115.84375 285.777344 116.363281 286.183594 C 117.039062 286.710938 117.71875 287.230469 118.402344 287.75 C 118.734375 288.003906 119.0625 288.257812 119.394531 288.511719 C 119.566406 288.644531 119.738281 288.777344 119.910156 288.910156 C 120.433594 289.3125 120.953125 289.714844 121.472656 290.121094 C 122.148438 290.648438 122.828125 291.167969 123.511719 291.6875 C 123.84375 291.941406 124.171875 292.195312 124.503906 292.449219 C 124.675781 292.582031 124.847656 292.714844 125.019531 292.847656 C 125.542969 293.25 126.0625 293.652344 126.582031 294.058594 C 127.257812 294.585938 127.9375 295.105469 128.621094 295.625 C 128.953125 295.878906 129.28125 296.132812 129.613281 296.386719 C 129.785156 296.519531 129.957031 296.652344 130.128906 296.785156 C 130.652344 297.1875 131.171875 297.589844 131.695312 297.996094 C 132.371094 298.523438 133.050781 299.042969 133.730469 299.5625 C 134.0625 299.816406 134.390625 300.070312 134.722656 300.324219 C 134.894531 300.457031 135.066406 300.589844 135.238281 300.722656 C 135.761719 301.125 136.28125 301.527344 136.804688 301.933594 C 137.480469 302.460938 138.160156 302.980469 138.839844 303.5 C 139.171875 303.753906 139.5 304.007812 139.832031 304.265625 C 140.003906 304.394531 140.175781 304.527344 140.347656 304.660156 C 140.871094 305.0625 141.390625 305.464844 141.914062 305.871094 C 142.589844 306.398438 143.269531 306.921875 143.953125 307.441406 C 144.613281 307.949219 145.273438 308.457031 145.933594 308.972656 C 146.609375 309.5 147.289062 310.019531 147.96875 310.539062 C 148.300781 310.792969 148.632812 311.046875 148.960938 311.300781 C 149.132812 311.433594 149.304688 311.566406 149.476562 311.699219 C 150.199219 312.25 150.917969 312.808594 151.632812 313.367188 C 151.765625 313.46875 151.894531 313.570312 152.027344 313.671875 C 152.097656 313.722656 152.164062 313.777344 152.234375 313.828125 C 152.328125 313.902344 152.328125 313.902344 152.425781 313.972656 C 152.570312 314.097656 152.570312 314.097656 152.65625 314.265625 C 152.664062 314.398438 152.667969 314.535156 152.667969 314.667969 C 152.667969 314.753906 152.667969 314.839844 152.667969 314.925781 C 152.667969 315.070312 152.667969 315.070312 152.667969 315.214844 C 152.667969 315.316406 152.667969 315.414062 152.667969 315.519531 C 152.667969 315.800781 152.667969 316.082031 152.667969 316.363281 C 152.664062 316.667969 152.667969 316.972656 152.667969 317.277344 C 152.667969 317.8125 152.667969 318.347656 152.664062 318.882812 C 152.664062 319.675781 152.664062 320.472656 152.664062 321.269531 C 152.664062 322.609375 152.664062 323.945312 152.664062 325.285156 C 152.664062 326.609375 152.664062 327.9375 152.664062 329.261719 C 152.664062 329.34375 152.664062 329.425781 152.664062 329.511719 C 152.664062 329.929688 152.664062 330.347656 152.664062 330.765625 C 152.664062 333.730469 152.664062 336.695312 152.664062 339.65625 C 152.660156 342.539062 152.660156 345.417969 152.660156 348.296875 C 152.660156 348.429688 152.660156 348.429688 152.660156 348.566406 C 152.660156 349.457031 152.660156 350.347656 152.660156 351.238281 C 152.660156 353.054688 152.660156 354.871094 152.660156 356.683594 C 152.660156 356.769531 152.660156 356.851562 152.660156 356.9375 C 152.660156 362.515625 152.65625 368.089844 152.65625 373.667969 C 152.273438 373.609375 151.964844 373.515625 151.609375 373.355469 C 151.558594 373.332031 151.507812 373.308594 151.453125 373.285156 C 151.335938 373.234375 151.222656 373.183594 151.109375 373.132812 C 150.792969 372.988281 150.472656 372.847656 150.15625 372.703125 C 150.085938 372.675781 150.019531 372.644531 149.949219 372.613281 C 149.128906 372.246094 148.304688 371.890625 147.476562 371.535156 C 147.320312 371.46875 147.164062 371.398438 147.003906 371.332031 C 146.769531 371.230469 146.535156 371.128906 146.300781 371.027344 C 145.542969 370.703125 144.789062 370.375 144.035156 370.050781 C 143.90625 369.996094 143.78125 369.9375 143.652344 369.882812 C 143.402344 369.777344 143.148438 369.667969 142.898438 369.558594 C 142.320312 369.308594 141.742188 369.058594 141.164062 368.808594 C 140.84375 368.667969 140.519531 368.527344 140.195312 368.390625 C 140.066406 368.332031 139.9375 368.277344 139.808594 368.222656 C 132.835938 365.207031 132.835938 365.207031 132.640625 365.121094 C 132.511719 365.066406 132.382812 365.011719 132.253906 364.953125 C 131.929688 364.816406 131.609375 364.675781 131.285156 364.535156 C 130.699219 364.28125 130.113281 364.027344 129.527344 363.773438 C 128.171875 363.1875 126.816406 362.601562 125.464844 362.015625 C 124.246094 361.488281 123.027344 360.960938 121.808594 360.433594 C 121.222656 360.179688 120.640625 359.929688 120.054688 359.675781 C 119.730469 359.535156 119.410156 359.394531 119.085938 359.257812 C 118.957031 359.199219 118.828125 359.144531 118.699219 359.089844 C 118.636719 359.0625 118.570312 359.035156 118.503906 359.003906 C 117.277344 358.476562 116.050781 357.945312 114.824219 357.414062 C 114.761719 357.386719 114.699219 357.359375 114.632812 357.328125 C 114.503906 357.273438 114.375 357.21875 114.242188 357.164062 C 113.921875 357.023438 113.601562 356.882812 113.277344 356.746094 C 112.6875 356.488281 112.097656 356.234375 111.507812 355.980469 C 109.953125 355.304688 108.398438 354.636719 106.835938 353.980469 C 106.835938 353.921875 106.835938 353.867188 106.835938 353.8125 C 106.78125 353.8125 106.726562 353.8125 106.667969 353.8125 C 106.667969 329.09375 106.667969 304.375 106.667969 278.910156 Z M 106.667969 278.910156 " fill-opacity="1" fill-rule="nonzero"/><path fill="#2d613f" d="M 269.425781 173.59375 C 269.480469 173.621094 269.535156 173.648438 269.59375 173.679688 C 269.511719 173.742188 269.511719 173.742188 269.429688 173.8125 C 269.203125 174.078125 269.214844 174.234375 269.214844 174.582031 C 269.214844 174.667969 269.214844 174.667969 269.214844 174.753906 C 269.214844 174.949219 269.214844 175.140625 269.214844 175.335938 C 269.214844 175.476562 269.214844 175.617188 269.214844 175.757812 C 269.214844 176.144531 269.214844 176.535156 269.214844 176.925781 C 269.214844 177.347656 269.214844 177.773438 269.214844 178.195312 C 269.210938 178.941406 269.210938 179.6875 269.214844 180.433594 C 269.214844 181.554688 269.214844 182.671875 269.214844 183.789062 C 269.210938 185.691406 269.210938 187.597656 269.210938 189.503906 C 269.210938 191.433594 269.210938 193.363281 269.210938 195.296875 C 269.210938 195.355469 269.210938 195.417969 269.210938 195.480469 C 269.210938 196.035156 269.210938 196.59375 269.210938 197.152344 C 269.210938 198.550781 269.207031 199.949219 269.207031 201.347656 C 269.207031 201.410156 269.207031 201.476562 269.207031 201.542969 C 269.207031 204.703125 269.207031 207.863281 269.207031 211.023438 C 269.207031 212.136719 269.207031 213.25 269.207031 214.363281 C 269.207031 214.433594 269.207031 214.503906 269.207031 214.574219 C 269.207031 217.777344 269.207031 220.980469 269.207031 224.183594 C 269.207031 224.394531 269.203125 224.605469 269.203125 224.8125 C 269.203125 226.078125 269.203125 227.339844 269.203125 228.601562 C 269.203125 231.742188 269.203125 234.882812 269.199219 238.023438 C 269.199219 238.097656 269.199219 238.167969 269.199219 238.242188 C 269.199219 242.871094 269.199219 247.503906 269.199219 252.136719 C 269.199219 252.210938 269.199219 252.285156 269.199219 252.359375 C 269.199219 254.613281 269.195312 256.863281 269.195312 259.113281 C 269.195312 261.605469 269.195312 264.097656 269.195312 266.589844 C 269.195312 266.664062 269.195312 266.738281 269.195312 266.816406 C 269.195312 273.929688 269.195312 281.042969 269.191406 288.160156 C 269.191406 288.460938 269.191406 288.761719 269.191406 289.0625 C 269.191406 291.835938 269.191406 294.609375 269.1875 297.378906 C 269.1875 297.453125 269.1875 297.527344 269.1875 297.605469 C 269.1875 297.828125 269.1875 298.050781 269.1875 298.273438 C 269.1875 304.304688 269.1875 310.335938 269.183594 316.367188 C 269.183594 316.578125 269.183594 316.792969 269.183594 317.003906 C 269.183594 323.914062 269.179688 330.828125 269.175781 355.34375 C 269.175781 355.40625 269.175781 355.464844 269.175781 355.527344 C 269.175781 361.574219 269.175781 367.621094 269.175781 373.667969 C 269.148438 373.667969 269.117188 373.667969 269.089844 373.667969 C 269.082031 366.363281 269.074219 359.058594 269.015625 225.210938 C 269.015625 225.140625 269.015625 225.074219 269.015625 225.007812 C 269.015625 223.796875 269.019531 222.582031 269.019531 221.371094 C 269.019531 218.363281 269.023438 215.355469 269.023438 212.347656 C 269.023438 212.28125 269.023438 212.214844 269.023438 212.148438 C 269.023438 211.347656 269.023438 210.542969 269.023438 209.742188 C 269.027344 206.453125 269.027344 203.164062 269.027344 199.875 C 269.027344 199.816406 269.027344 199.753906 269.03125 199.691406 C 269.03125 198.355469 269.03125 197.023438 269.03125 195.6875 C 269.035156 195.214844 269.035156 194.742188 269.035156 194.269531 C 269.035156 194.152344 269.035156 194.035156 269.035156 193.917969 C 269.035156 192.078125 269.035156 190.238281 269.035156 188.398438 C 269.039062 186.539062 269.039062 184.683594 269.042969 182.828125 C 269.042969 181.773438 269.042969 180.714844 269.042969 179.660156 C 269.042969 178.960938 269.042969 178.261719 269.046875 177.5625 C 269.046875 177.164062 269.046875 176.765625 269.046875 176.367188 C 269.042969 176.007812 269.046875 175.648438 269.046875 175.289062 C 269.046875 175.160156 269.046875 175.03125 269.046875 174.902344 C 269.046875 174.726562 269.046875 174.550781 269.046875 174.375 C 269.046875 174.277344 269.046875 174.183594 269.046875 174.082031 C 269.089844 173.847656 269.089844 173.847656 269.261719 173.6875 C 269.316406 173.65625 269.371094 173.625 269.425781 173.59375 Z M 269.425781 173.59375 " fill-opacity="1" fill-rule="nonzero"/><path fill="#78aa8c" d="M 38.230469 115.953125 C 38.285156 115.980469 38.34375 116.007812 38.398438 116.035156 C 38.316406 116.09375 38.234375 116.148438 38.152344 116.207031 C 37.800781 116.5625 37.832031 116.980469 37.832031 117.457031 C 37.832031 117.582031 37.832031 117.710938 37.835938 117.835938 C 37.832031 117.972656 37.832031 118.105469 37.832031 118.242188 C 37.832031 118.617188 37.832031 118.992188 37.832031 119.367188 C 37.835938 119.777344 37.835938 120.1875 37.832031 120.59375 C 37.832031 121.3125 37.832031 122.035156 37.832031 122.753906 C 37.835938 123.832031 37.835938 124.910156 37.835938 125.988281 C 37.832031 127.824219 37.835938 129.660156 37.835938 131.496094 C 37.839844 133.359375 37.839844 135.21875 37.839844 137.082031 C 37.839844 137.140625 37.839844 137.199219 37.839844 137.257812 C 37.839844 137.796875 37.839844 138.335938 37.839844 138.871094 C 37.839844 140.222656 37.839844 141.570312 37.839844 142.917969 C 37.839844 142.980469 37.839844 143.042969 37.839844 143.105469 C 37.839844 146.152344 37.839844 149.199219 37.84375 152.25 C 37.84375 153.320312 37.84375 154.394531 37.847656 155.46875 C 37.847656 155.535156 37.847656 155.601562 37.847656 155.671875 C 37.847656 158.757812 37.847656 161.847656 37.847656 164.9375 C 37.847656 165.140625 37.847656 165.34375 37.847656 165.542969 C 37.847656 166.761719 37.847656 167.980469 37.847656 169.199219 C 37.851562 172.226562 37.851562 175.253906 37.851562 178.28125 C 37.851562 178.351562 37.851562 178.421875 37.851562 178.492188 C 37.851562 182.957031 37.851562 187.421875 37.855469 191.890625 C 37.855469 191.996094 37.855469 191.996094 37.855469 192.105469 C 37.855469 194.277344 37.859375 196.445312 37.859375 198.617188 C 37.859375 201.019531 37.859375 203.421875 37.863281 205.824219 C 37.863281 205.894531 37.863281 205.96875 37.863281 206.042969 C 37.867188 212.902344 37.867188 219.761719 37.867188 226.621094 C 37.867188 226.914062 37.867188 227.203125 37.871094 227.492188 C 37.871094 230.167969 37.871094 232.839844 37.871094 235.515625 C 37.871094 235.585938 37.871094 235.65625 37.871094 235.730469 C 37.871094 235.945312 37.871094 236.160156 37.871094 236.375 C 37.871094 242.191406 37.875 248.003906 37.875 253.820312 C 37.875 254.027344 37.875 254.230469 37.875 254.4375 C 37.878906 261.101562 37.878906 267.765625 37.890625 291.40625 C 37.890625 291.464844 37.890625 291.519531 37.890625 291.582031 C 37.890625 297.410156 37.894531 303.242188 37.898438 309.070312 C 37.839844 309.070312 37.785156 309.070312 37.730469 309.070312 C 37.726562 303.175781 37.722656 297.28125 37.722656 291.386719 C 37.722656 291.332031 37.722656 291.273438 37.722656 291.214844 C 37.71875 285.007812 37.714844 278.800781 37.707031 254.179688 C 37.707031 253.972656 37.707031 253.769531 37.707031 253.5625 C 37.707031 247.738281 37.703125 241.917969 37.703125 236.09375 C 37.703125 235.878906 37.703125 235.660156 37.703125 235.445312 C 37.703125 235.375 37.703125 235.304688 37.703125 235.230469 C 37.703125 232.554688 37.703125 229.875 37.703125 227.199219 C 37.703125 226.910156 37.703125 226.617188 37.703125 226.328125 C 37.699219 219.460938 37.699219 212.59375 37.695312 205.726562 C 37.695312 205.65625 37.695312 205.582031 37.695312 205.507812 C 37.695312 203.105469 37.691406 200.703125 37.691406 198.296875 C 37.691406 196.125 37.6875 193.953125 37.6875 191.78125 C 37.6875 191.710938 37.6875 191.636719 37.6875 191.5625 C 37.6875 187.097656 37.683594 182.628906 37.683594 178.160156 C 37.683594 178.09375 37.683594 178.023438 37.683594 177.953125 C 37.683594 174.921875 37.683594 171.894531 37.683594 168.863281 C 37.683594 167.644531 37.679688 166.425781 37.679688 165.207031 C 37.679688 165.007812 37.679688 164.804688 37.679688 164.601562 C 37.679688 161.511719 37.679688 158.417969 37.679688 155.324219 C 37.679688 155.257812 37.679688 155.191406 37.679688 155.125 C 37.675781 154.050781 37.675781 152.976562 37.675781 151.902344 C 37.671875 148.855469 37.671875 145.808594 37.671875 142.761719 C 37.671875 142.703125 37.671875 142.640625 37.671875 142.578125 C 37.671875 141.230469 37.671875 139.882812 37.671875 138.535156 C 37.671875 137.996094 37.671875 137.460938 37.671875 136.921875 C 37.671875 136.863281 37.671875 136.804688 37.671875 136.746094 C 37.671875 134.882812 37.671875 133.023438 37.667969 131.160156 C 37.667969 129.277344 37.667969 127.394531 37.667969 125.515625 C 37.667969 124.441406 37.667969 123.371094 37.664062 122.296875 C 37.664062 121.589844 37.664062 120.878906 37.667969 120.167969 C 37.667969 119.765625 37.667969 119.359375 37.664062 118.957031 C 37.664062 118.589844 37.664062 118.226562 37.667969 117.859375 C 37.667969 117.726562 37.667969 117.597656 37.664062 117.464844 C 37.65625 116.480469 37.65625 116.480469 37.84375 116.199219 C 37.984375 116.082031 37.984375 116.082031 38.230469 115.953125 Z M 38.230469 115.953125 " fill-opacity="1" fill-rule="nonzero"/><path fill="#4c5e55" d="M 106.5 278.742188 C 106.671875 278.777344 106.671875 278.777344 106.835938 278.824219 C 106.753906 278.867188 106.753906 278.867188 106.667969 278.910156 C 106.667969 303.628906 106.667969 328.34375 106.667969 353.8125 C 106.640625 353.8125 106.613281 353.8125 106.585938 353.8125 C 106.585938 329.09375 106.585938 304.375 106.585938 278.910156 C 106.53125 278.882812 106.472656 278.855469 106.417969 278.824219 C 106.445312 278.796875 106.472656 278.769531 106.5 278.742188 Z M 106.5 278.742188 " fill-opacity="1" fill-rule="nonzero"/></svg>